<?xml version="1.0" encoding="UTF-8" standalone="no"?>
<svg
   xmlns:dc="http://purl.org/dc/elements/1.1/"
   xmlns:cc="http://creativecommons.org/ns#"
   xmlns:rdf="http://www.w3.org/1999/02/22-rdf-syntax-ns#"
   xmlns:svg="http://www.w3.org/2000/svg"
   xmlns="http://www.w3.org/2000/svg"
   viewBox="0 0 797.06665 787.61334"
   height="787.61334"
   width="797.06665"
   xml:space="preserve"
   version="1.1"
   id="svg2"><metadata
     id="metadata8"><rdf:RDF><cc:Work
         rdf:about=""><dc:format>image/svg+xml</dc:format><dc:type
           rdf:resource="http://purl.org/dc/dcmitype/StillImage" /></cc:Work></rdf:RDF></metadata><defs
     id="defs6" /><g
     transform="matrix(1.3333333,0,0,-1.3333333,0,787.61333)"
     id="g10"><g
       transform="scale(0.1)"
       id="g12"><path
         id="path14"
         style="fill:#100f0d;fill-opacity:1;fill-rule:nonzero;stroke:none"
         d="m 484.188,945.539 c 13.148,0.129 26.296,0 39.507,-0.25 -0.304,-81.687 -0.25,-163.367 -0.125,-245.059 -14.547,0.43 -29.34,-1.468 -43.644,1.641 2.375,45.16 -15.34,90.879 -48.215,122.051 C 364.871,893.309 249.703,904.34 168.559,853.93 118.828,825.129 80.3555,769.98 84.4336,710.82 81.875,657.801 120.102,612.082 163.445,586.211 c 73.782,-44.922 164.114,-42.063 241.914,-76.77 57.399,-22.64 113.407,-60.32 138.176,-119.132 21.856,-41.868 17.11,-90.141 15.344,-135.618 C 536.84,142.262 430.191,59.9609 318.914,49.6094 289.215,48.6406 259.441,48.0312 229.859,50.6484 171.363,61.4297 114.934,87.6016 72.3203,129.539 62.8867,139.16 53.1406,148.289 43.1016,157.121 42.7344,123.52 42.918,89.8516 42.7969,56.1914 30.1953,56.0703 17.5977,55.8086 4.99609,55.1602 -2.25,76.2109 0.738281,98.6719 0.121094,120.41 0.792969,181.102 -1.03125,241.852 0.976562,302.48 10.5938,319.879 33.668,309.422 48.1562,305.102 40.1797,248.301 69.5234,193.332 110.367,155.84 196.93,76.2695 339.859,71.0391 433.844,140.559 c 35.797,26.972 65.011,64.402 76.883,107.921 2.617,34.04 2.675,68.43 -0.243,102.391 -13.027,49.809 -53.937,86.75 -99.527,107.438 -82.969,41.531 -181.277,37.082 -261.875,84.441 -53.8164,28.301 -97.6406,79.141 -108.0468,140.121 -9.1368,40.309 1.0937,82.609 18.6875,119.188 32.0195,64.781 97.8203,107.812 167.3943,122.41 72.258,11.883 151.395,0.679 210.141,-45.641 14.91,-13.828 31.039,-26.18 47.476,-38.109 -1.097,34.941 0.063,69.883 -0.546,104.82 l 0,0 z m 4901.862,-0.301 c 92.52,0.731 185.11,0 277.63,0.43 8.71,-0.977 19.24,2.312 26.86,-3.719 0.23,-13.449 -0.32,-26.898 -0.43,-40.418 -37.26,0.418 -74.57,0.117 -111.83,0.25 -7.84,-0.133 -21.73,-4.5 -20.27,-14.48 -0.42,-243.442 0.07,-486.942 -0.25,-730.371 0.12,-19.59 -1.88,-39.871 5.61,-58.6214 123.51,1.1523 247.08,0.25 370.65,0.4297 0,77.5427 0.19,155.0427 0,232.5317 14.61,0.128 29.28,-0.059 44.02,-0.418 -0.36,-91.622 -0.19,-183.161 -0.06,-274.7817 -197.23,-0.2617 -394.46,-0.3203 -591.63,0.0508 -0.06,12.6601 -0.3,25.2695 -0.9,37.6875 41.5,10.9534 86.06,2.3125 128.86,5.0508 0.85,266.0116 -0.49,532.0316 0.66,798.0506 -42.12,9.93 -85.95,2.43 -128.75,5.11 0.13,14.429 0.13,28.851 -0.17,43.218 M 3730.24,896.109 c 1.95,-267.347 -0.91,-534.769 1.4,-802.0699 61.6,-2.3008 123.46,-0.8985 185.12,-0.6602 145.12,10.7111 278.12,108.7231 335.89,241.6011 45.59,103.5 44.37,226.7 -2.91,329.391 -52.24,116.149 -162.24,203.07 -286.84,228.641 -47.36,7.847 -95.69,9.679 -143.78,8.578 -29.66,-0.969 -60.15,3.781 -88.88,-5.481 m -177.32,49.371 c 123.26,-0.351 246.53,0.668 369.79,-0.48 109.82,-11.328 215.81,-62.461 290.49,-144.332 68.06,-76.098 114.56,-175.559 115.91,-278.559 7.67,-30.437 -3.11,-60.808 -1.82,-91.55 -16.63,-107.258 -72.51,-208.731 -156.03,-278.5 -45.96,-38.098 -99.16,-67.4496 -156.13,-85.2074 -45.66,-14.8711 -93.57,-18.7618 -141.17,-21.25 -99.53,0.1093 -199,0 -298.46,0 -9.61,-0.3633 -18.93,2.7382 -26.66,8.0898 -1.04,13.5078 1.39,26.7891 5.29,39.5078 44.57,-0.8476 89.13,0.3594 133.67,-0.3711 0.2,267.9729 -0.66,536.0509 0.5,804.0819 -44.01,10.09 -89.6,1.641 -134.23,5.36 -1.82,14.41 -1.03,28.91 -1.15,43.21 m -979.39,-0.191 c 101.42,0.25 202.83,0.801 304.24,-0.289 -0.42,-14.191 -0.48,-28.379 -0.18,-42.621 -37.13,-3.399 -75.61,5.109 -111.52,-6.93 65.2,-97.949 125.7,-199.058 189.19,-298.219 78.66,-124.191 156.75,-248.73 235.29,-373.031 14.66,-22.34 26.04,-47.418 46.98,-65.008 2.38,245.739 -0.48,491.598 1.41,737.34 -42.13,10.469 -86.32,2.989 -129.3,5.117 0.12,14.614 0.06,29.161 -0.29,43.704 101.76,0.187 203.61,0.558 305.39,-0.172 -0.55,-14.239 -0.62,-28.621 -0.19,-42.981 -43.04,-3.219 -87.17,4.871 -129.34,-5.289 1.75,-298.949 0,-597.961 0.83,-896.91 -4.25,1.51953 -8.44,2.92969 -12.59,4.32812 C 3220.06,97.1602 3159.98,186.039 3103.8,277.16 c -110.85,177.141 -223.47,353.168 -333.83,530.57 -7.13,11.372 -15.59,21.782 -23.81,32.321 -2.49,-246.961 -0.48,-493.981 -0.97,-740.9416 41.52,-0.7383 83.03,0.3008 124.61,-0.5508 7.86,-12.2383 2.01,-28.9766 3.72,-43.1602 -99.84,1.2735 -199.67,0.0625 -299.51,0.6133 -0.11,12.7071 -0.36,25.3164 -1.09,37.7969 40.36,10.7034 83.7,2.6797 125.27,4.8008 6.95,37.1996 1.53,75.4926 3.24,113.1096 0.05,225.293 -0.07,450.582 0.05,675.871 1.89,10.828 -12.35,14.922 -20.63,14.121 -35.67,0.187 -71.41,-0.18 -107.08,0.129 0.13,14.551 0.07,29.031 -0.24,43.449 m -1162.13,0.25 c 15.95,-0.117 31.91,-0.117 47.85,-0.41 -1.15,-102.34 0.74,-204.668 -0.97,-306.988 -19.36,18.988 -29.16,44.988 -44.32,67.019 -50.22,81.078 -130.75,144.32 -223.71,167.879 -108.9,31.473 -230.949,0.789 -317.512,-70.98 C 774.004,721.949 721.168,593.09 724.883,467.262 733.098,395.918 751.781,323.98 792.875,264.059 844.863,182.5 929.105,121.441 1023.76,100.32 c 38.05,-10.5309 77.92,-7.1208 116.94,-6.57 102.76,11.68 197.11,70.801 257.13,154.379 6.94,9.293 13.09,19.652 22.77,26.473 15.03,1.707 30.31,0 44.56,-5.352 C 1394.24,137.578 1250.03,42.0703 1098.09,48.8281 1008.79,45.168 920.707,79.6211 850.883,134.102 731.516,227.051 667.051,384.66 684.336,534.352 c 7.852,84.906 40.176,167.757 93.562,234.468 57.649,75.918 142.93,130.34 235.822,151.52 78.34,14.922 162.11,11.5 236.31,-19.66 61.79,-23.75 114.8,-65.489 160.64,-112.621 1.71,52.48 0.79,105.011 0.73,157.48 M 1976,790.211 c -36.03,-99.172 -72.2,-198.332 -108.23,-297.5 -7.79,-21.492 -17.65,-42.43 -20.82,-65.332 103.18,-0.84 206.36,-0.238 309.54,-0.297 -0.55,15.656 -3.78,30.867 -10.04,45.117 -48.03,127.699 -92.59,256.699 -141.04,384.289 -14.61,-19.66 -20.95,-43.66 -29.41,-66.277 m 15.59,173.961 c 3.46,5.668 10.47,17.098 13.93,22.816 68.61,-181.328 132.53,-364.5 200.22,-546.207 2.92,-8.511 9.74,-16.5 19.47,-16.742 31.35,-1.098 62.76,0.242 94.17,-0.539 -0.24,-13.75 -0.18,-27.641 0.25,-41.57 -30.98,1.64 -63.86,6.14 -93.38,-6.032 13.45,-21.187 18.8,-46.027 28.07,-69.089 22.94,-62.77 45.89,-125.59 68.41,-188.598 3.53,-11.012 11.45,-22.211 24.11,-23.1329 35.48,-1.039 70.98,0.25 106.47,-0.6093 -0.06,-12.7774 -0.12,-25.6172 -0.25,-38.5782 -98.97,0.1797 -198.01,-0.1992 -297,0.1797 -12.78,9.3711 -10.95,32.9805 0.92,42.3594 42,1.2812 84.12,-0.4883 126.13,0.9219 -36.17,91.3594 -67.39,184.8084 -101.78,276.9104 -11.14,4.976 -23.68,6.746 -35.8,7.308 -105.85,-0.179 -211.72,-0.058 -317.57,-0.121 -23.56,-64.597 -47.18,-129.179 -70.55,-193.828 -10.78,-30.082 -23.74,-59.473 -31.17,-90.6327 42.12,-0.6797 84.24,0.6601 126.37,-0.6172 7.37,-12.293 2.56,-28.3594 4.14,-42.3008 -101.84,-0.5508 -203.74,0.3086 -305.58,-0.4219 0.61,13.0118 0.79,25.9805 0.79,38.8204 39.81,0.2617 79.62,0.7421 119.43,0 26.96,54.4922 42.98,113.6012 65.14,170.0312 13.02,39.871 31.78,78.031 41.03,119.012 -29.16,-0.121 -58.32,0.109 -87.42,-0.25 -0.24,13.578 -0.24,27.09 -0.12,40.539 34.45,-0.43 68.85,0.371 103.24,-0.301 68.6,179.262 131.55,360.672 198.33,540.672 m 2800.16,-169.16 c -43.47,-122.723 -91.08,-243.981 -132.22,-367.5 103.18,-1.153 206.36,-0.184 309.53,-0.543 -1.15,16.011 -2.24,32.203 -9.01,46.812 -49.11,127.278 -91.18,257.309 -142.37,383.739 -11.03,-19.782 -18.52,-41.211 -25.93,-62.508 m -28.92,51.976 c 18.25,47.543 32.5,96.782 54.79,142.742 47.78,-119.492 88.5,-241.722 133.92,-362.121 25.38,-66.91 46.44,-135.57 75.47,-201.019 34.95,1.051 69.94,-0.172 104.95,0.789 -0.18,-16 -0.3,-32.117 -0.11,-48.258 -29.59,0.668 -59.18,0.731 -88.7,-0.242 32.62,-93.93 66.11,-187.738 102.33,-280.3204 38.83,0.2422 77.73,1.0312 116.57,-0.3086 14.18,-9.5 7.55,-28.2383 5.85,-42.3008 -100.75,-0.1992 -201.49,0.1719 -302.25,-0.1992 0,14.5 0.13,28.9883 0.49,43.3594 41.27,-1.0391 82.67,0.9686 124.01,-1.1016 -0.2,14.0042 -3.18,27.6402 -8.17,40.5512 -30.13,79.3 -57.28,159.652 -87.71,238.793 -38.17,5.117 -77.43,0.738 -115.97,2.128 -79.62,0 -159.24,0.129 -238.86,-0.121 -31.59,-94.05 -68.25,-186.461 -100.81,-280.2496 42.38,-0.8008 84.8,0.2422 127.16,-0.4375 6.77,-12.9024 2.14,-28.8321 3.41,-43.1524 -88.57,1.0899 -177.13,-0.1914 -265.7,0.6016 -11.75,-0.4297 -24.16,1.707 -35.07,-3.4609 0.66,14 0.54,27.8789 -0.12,41.6992 38.59,0.539 77.25,0.789 115.9,0.0625 24.96,44.3081 36.77,94.4061 55.76,141.2771 18.32,47.063 32.87,95.641 53.39,141.781 -29.59,8.028 -60.21,6.2 -90.46,5.711 -0.24,13.649 -0.3,27.207 -0.13,40.668 34.41,-0.55 68.86,0.481 103.31,-0.488 21.37,46.508 36.59,95.399 54.6,143.168 33.84,93.582 68.06,187.012 102.15,280.449 M 2864.26,5531.71 c -33.23,-4.99 -67.44,-0.25 -100.19,-9.43 -333.89,-42.92 -655.73,-176.41 -923.45,-380.64 -88.45,-68.43 -173.43,-142.08 -247.32,-226.26 -265.78,-285.69 -442.01,-654.03 -495.81,-1040.63 -7.74,-37.74 -7.43,-76.46 -14.19,-114.26 1.28,-36.7 -7.67,-72.68 -5.6,-109.45 -9.37,-388.92 100.43,-781 314.41,-1106.79 83.39,-130.02 185.97,-246.59 296.69,-353.97 124.49,-114.81 262.06,-216.35 412.29,-295.12 460.21,423.91 921.5,846.93 1381.76,1270.72 27.94,22.71 51.32,50.22 78.11,74.27 109.87,96.85 216.52,197.17 325,295.59 32.93,34.64 72.67,62.16 103.3,99.17 -686.83,1.58 -1373.72,-0.91 -2060.55,1.21 41.39,46.09 90.15,84.68 134.4,127.84 137.88,125.82 274.78,252.75 412.48,378.75 329.75,305.47 661.57,608.67 991.98,913.46 26.72,21.73 49.98,47.24 74.7,71.1 89.48,80.11 177.68,162.53 265.76,243.68 -15.03,1.46 -27.82,9.8 -41.39,15.39 -146.94,61.61 -301.44,106.04 -458.86,130.27 -32.99,0.49 -64.47,13.7 -97.63,12.24 -38.91,-1.1 -76.83,9.07 -115.42,11.26 -76.89,-1.15 -154.38,5 -230.47,-8.4 M 4391.5,5905.9 c 20.76,2.25 41.76,1.03 62.64,-0.43 -29.71,-32.81 -65.38,-59.35 -96.48,-90.7 -95.76,-86.81 -189.93,-175.25 -285.8,-261.94 -60.7,-58.56 -125.58,-112.67 -184.81,-172.75 190.47,-92.66 365.12,-217.44 516.45,-365.48 265.04,-262.91 458.25,-600.21 540.43,-965.02 -14.74,-0.43 -29.47,-0.43 -44.14,-0.61 -52.77,209.89 -136.23,412.65 -253.97,594.6 -68.04,107.32 -148.1,206.73 -234.47,299.8 -157.11,162.11 -341.81,297.61 -544.7,396.95 -7.36,2.68 -16.37,10.72 -22.58,1.95 -92.47,-83.94 -184.14,-168.73 -276.42,-252.74 -128.75,-123.09 -261.82,-241.48 -391.91,-363.04 -344.53,-314.97 -686.76,-632.42 -1030.57,-948.04 -35.55,-35.13 -76.46,-64.89 -107.87,-104.1 660.89,-0.48 1321.79,-0.06 1982.69,-0.18 25.69,-0.24 51.45,0.91 77.19,-1.34 -26.97,-28.37 -55.52,-55.27 -85.16,-80.84 -83.15,-77.31 -166.91,-153.88 -250.61,-230.53 -37.45,-37.74 -79.69,-70.12 -118.46,-106.4 -40.73,-40.48 -85.4,-76.7 -125.52,-117.85 -298.47,-273.98 -595.77,-549.31 -895.26,-822.02 -40.85,-33.91 -75.6,-74.45 -116.81,-108 -83.83,-78.58 -168.87,-155.83 -253.55,-233.5 -34.63,-35.19 -75.05,-64.29 -106.89,-102.26 195.52,-97.83 407.55,-163.45 624.44,-191.03 29.03,-5.66 58.92,-3.23 87.77,-9.99 32.75,0.43 64.84,-7.18 97.59,-5.84 77.18,-0.66 154.5,-1.71 231.07,7.85 314.53,27.28 622.31,134.53 886.62,307.65 112.55,73.24 216.89,158.83 312.34,253.12 45.53,43.95 84.55,93.8 127.1,140.43 182.67,222.19 314.47,485.77 383.14,764.99 1.76,26.05 31.34,14 48.69,16.07 -28.48,-137.58 -77.5,-270.82 -136.96,-398.04 -61.79,-131.42 -138.66,-255.55 -227.24,-370.54 -51.37,-60.27 -101.3,-122.05 -157.6,-177.87 -313.37,-318.55 -738.09,-526.55 -1182.4,-575.56 -51.92,-7.73 -104.59,-5.96 -156.93,-7.61 -34.21,-8.39 -69.58,-3.7 -104.34,-4.92 -18.32,-0.98 -35.67,6.69 -53.87,5.6 -104.94,-1.58 -208.79,14.97 -311.49,34.88 -175.01,37.14 -345.09,97.03 -504.21,178.9 -35.12,-28.37 -68.29,-59.4 -100.68,-90.88 -81.63,-74.69 -163.57,-149.02 -244.28,-224.68 -44.2,-37.44 -83.58,-80.41 -129.66,-115.6 -17.72,-1.09 -35.49,-0.37 -53.21,0.06 5.54,10.59 12.97,19.91 21.98,27.64 133.92,125.82 270.34,248.97 405.17,373.77 17.47,18.79 40.73,32.37 53.75,55.02 -167.58,92.34 -323.05,208 -455.75,346.11 -287.21,284.77 -479.02,662.55 -545.36,1061.09 -9.8,61.11 -19.73,122.41 -20.77,184.38 -9.61,54.11 -4.93,109.45 -6.27,164.18 1.53,36.88 -2.37,74.32 4.09,110.79 25.62,429.03 199.96,847.28 483.14,1170.58 45.42,53.93 96.61,102.57 146.4,152.37 268.64,249.63 607.76,422.39 967.7,492.83 45.65,7.48 90.82,18.74 137.26,19.96 53.94,13.27 109.7,7 164,16.07 52.96,0.91 105.98,1.22 158.94,-0.12 54.18,-9.19 109.94,-2.62 163.75,-16.25 40.54,0 79.56,-11.02 119.43,-16.57 156.26,-29.21 308.62,-78.4 453.62,-143.35 12.67,-7.24 22.1,7.61 31.55,13.95 149.43,138.84 300.46,275.99 450.03,414.72 27.69,21.55 49.91,49.3 78.03,70.31" /></g></g></svg>